<?xml version="1.0" encoding="UTF-8" standalone="no"?>
<svg width="83px" height="20px" viewBox="0 0 83 20" version="1.1" xmlns="http://www.w3.org/2000/svg" xmlns:xlink="http://www.w3.org/1999/xlink" xmlns:sketch="http://www.bohemiancoding.com/sketch/ns">
    <!-- Generator: Sketch 3.4.4 (17249) - http://www.bohemiancoding.com/sketch -->
    <title>logo</title>
    <desc>Created with Sketch.</desc>
    <defs>
        <path id="path-1" d="M0,0.0564485981 L82.8907601,0.0564485981 L82.8907601,20 L0,20 L0,0.0564485981 Z"></path>
    </defs>
    <g id="UI-KIT" stroke="none" stroke-width="1" fill="none" fill-rule="evenodd" sketch:type="MSPage">
        <g id="logo-white" sketch:type="MSArtboardGroup">
            <g id="logo" sketch:type="MSLayerGroup">
                <path d="M29.7978933,6.02842991 C29.7383417,5.84637383 29.6164471,5.7588972 29.4322094,5.76618692 C29.2760726,5.77235514 29.1567834,5.85179439 29.0745278,6.00394393 C28.9920861,6.15628037 28.9517027,6.59702804 28.9533776,7.32656075 C28.9585883,9.53272897 28.963613,11.7388972 28.9688238,13.9450654 C28.9706848,14.7680561 28.9989717,15.2755327 29.0536848,15.4676822 C29.1083978,15.6600187 29.2349448,15.7553458 29.4331399,15.7536636 C29.6359874,15.7521682 29.7656982,15.6400187 29.8219,15.417215 C29.8781018,15.1944112 29.9052722,14.6643178 29.9034112,13.8271215 C29.8987587,11.6493645 29.8941063,9.47160748 29.8892677,7.29385047 C29.887965,6.63254206 29.8574448,6.2106729 29.7978933,6.02842991" id="Fill-1" fill="#FEFEFE" sketch:type="MSShapeGroup"></path>
                <path d="M52.4013056,12.7799065 C52.8120253,12.7866355 53.0172922,12.7901869 53.4278258,12.7974766 C53.2454491,10.81 53.1172271,8.8182243 52.9869581,6.82682243 C52.7580567,8.80700935 52.5375298,10.7907477 52.4013056,12.7799065" id="Fill-3" fill="#FEFEFE" sketch:type="MSShapeGroup"></path>
                <path d="M13.9424368,7.28263551 C13.8123538,7.16543925 13.5752641,7.12263551 13.2313538,7.15459813 C13.2350758,8.30581308 13.2367507,8.8813271 13.2402865,10.032729 C13.5748919,10.0097383 13.8093762,9.94207477 13.9433673,9.82842991 C14.0775444,9.71478505 14.1436094,9.37048598 14.1417484,8.79571963 C14.1408179,8.50899065 14.1404457,8.36562617 14.1395152,8.0788972 C14.1382126,7.66543925 14.0725197,7.39983178 13.9424368,7.28263551" id="Fill-5" fill="#FEFEFE" sketch:type="MSShapeGroup"></path>
                <path d="M5.46452646,13.6282804 C5.8741296,13.606785 6.07883812,13.5961308 6.48862735,13.5750093 C6.33546816,12.2103364 6.18175067,10.5284673 6.02728879,8.5344486 C5.72841435,10.8763178 5.54045471,12.5639813 5.46452646,13.6282804" id="Fill-7" fill="#FEFEFE" sketch:type="MSShapeGroup"></path>
                <g id="Group-11">
                    <mask id="mask-2" sketch:name="Clip 10" fill="white">
                        <use xlink:href="#path-1"></use>
                    </mask>
                    <g id="Clip-10"></g>
                    <path d="M79.893176,16.7790654 C79.7020527,17.1657944 79.332833,17.4895327 78.7855168,17.7545794 C78.2380146,18.0196262 77.6008128,18.1560748 76.8740975,18.1560748 C76.0766648,18.1560748 75.3962881,17.9973832 74.8333397,17.6714019 C74.2702052,17.3452336 73.9019159,16.9254206 73.7286581,16.4166355 C73.5554002,15.9076636 73.4699809,15.1852336 73.4722141,14.2527103 C73.4729585,13.9269159 73.4733307,13.7639252 73.4742612,13.4381308 C74.5798733,13.4908411 75.1324002,13.5183178 76.2376401,13.5757009 C76.2367096,14.1635514 76.2361513,14.4573832 76.2352209,15.0452336 C76.2344765,15.4979439 76.2729989,15.7900935 76.350602,15.9209346 C76.4280191,16.0523364 76.5659182,16.1198131 76.7639271,16.124486 C76.9621222,16.128972 77.1095123,16.051215 77.2062836,15.8914019 C77.3030549,15.7315888 77.3518128,15.4927103 77.352185,15.1734579 C77.3531155,14.4715888 77.2619271,14.0057944 77.0784339,13.7820561 C76.8927074,13.5560748 76.424111,13.1700935 75.6882769,12.608785 C74.9500235,12.0456075 74.4607702,11.6250467 74.2210751,11.3691589 C73.9815661,11.1130841 73.783185,10.7671028 73.6264899,10.3299065 C73.4697948,9.89271028 73.3921917,9.34205607 73.3938666,8.68056075 C73.3960998,7.72691589 73.50962,7.04093458 73.734241,6.62785047 C73.958676,6.21476636 74.3204518,5.91719626 74.8191962,5.73831776 C75.3181267,5.55943925 75.9199697,5.52261682 76.6243531,5.62429907 C77.3946155,5.7353271 78.0506132,5.96448598 78.5925325,6.30074766 C79.1344518,6.63738318 79.49325,7.00915888 79.6691132,7.41757009 C79.8451626,7.82635514 79.9330011,8.48747664 79.9330011,9.40523364 C79.9330011,9.58766355 79.9330011,9.6788785 79.932815,9.86149533 C78.8305527,9.74149533 78.2791424,9.68373832 77.1757635,9.57252336 C77.1763217,9.21831776 77.1765078,9.0411215 77.17688,8.68691589 C77.1774383,8.27364486 77.1426379,8.00635514 77.0722926,7.88448598 C77.0019473,7.76280374 76.8845191,7.69158879 76.7200078,7.67158879 C76.5413531,7.64990654 76.4062455,7.71065421 76.3141267,7.85420561 C76.2221939,7.99757009 76.1760415,8.22654206 76.1754832,8.54037383 C76.1749249,8.94373832 76.2287074,9.25401869 76.3286424,9.46691589 C76.427833,9.67775701 76.7062365,9.95383178 77.1670168,10.2814953 C78.4883173,11.2248598 79.3211087,11.9448598 79.6642747,12.4805607 C80.0076267,13.0164486 80.1795818,13.8435514 80.1795818,14.9714019 C80.1795818,15.7914019 80.0841132,16.3923364 79.893176,16.7790654 L79.893176,16.7790654 Z M72.7628061,17.8930841 C70.6961805,17.8878505 69.6627747,17.8852336 67.5961491,17.8809346 C67.6102926,13.5106542 67.6244361,9.14056075 67.6385796,4.77046729 C69.6236939,4.9788785 70.6155998,5.0928972 72.5973643,5.34074766 C72.594759,6.34542056 72.5934563,6.84785047 72.5908509,7.85252336 C71.7971401,7.7728972 71.4001917,7.73420561 70.6061087,7.65962617 C70.6033173,8.62953271 70.6018285,9.11439252 70.5988509,10.0842991 C71.3425011,10.1381308 71.7141401,10.1657944 72.4574182,10.2229907 C72.4549989,11.1792523 72.4536962,11.6573832 72.4510908,12.6138318 C71.7074406,12.5738318 71.3356155,12.5543925 70.5917791,12.5170093 C70.5884294,13.6416822 70.5867545,14.2041121 70.5834047,15.328785 C71.4578823,15.3508411 71.895028,15.362243 72.7693195,15.3861682 C72.7667141,16.388972 72.7654114,16.8902804 72.7628061,17.8930841 L72.7628061,17.8930841 Z M66.400093,17.8783178 C65.3583128,17.8762617 64.8372365,17.8751402 63.7954563,17.873271 C63.8042029,14.8413084 63.8131357,11.8093458 63.8218823,8.77738318 C63.4636424,11.8084112 63.10838,14.8398131 62.7549787,17.8714019 C62.0159809,17.8700935 61.6465751,17.8695327 60.9075774,17.8682243 C60.550454,14.8351402 60.19575,11.8018692 59.8423487,8.76841121 C59.831741,11.8011215 59.8211334,14.8338318 59.8105258,17.8665421 C58.7685594,17.8650467 58.2476693,17.8642991 57.2057029,17.8628037 C57.2189159,13.2071028 57.2321289,8.55121495 57.2453419,3.8953271 C58.7899608,3.99345794 59.561898,4.04841121 61.1052141,4.17009346 C61.2170594,5.00261682 61.3318823,5.9811215 61.4498688,7.1046729 C61.6147522,8.50616822 61.6970078,9.20542056 61.8618913,10.6003738 C62.0963756,8.49682243 62.3316043,6.39308411 62.5675774,4.28953271 C64.1188957,4.42093458 64.8941827,4.49252336 66.4436401,4.64785047 C66.4291244,9.05794393 66.4146087,13.4682243 66.400093,17.8783178 L66.400093,17.8783178 Z M53.6541962,17.8586916 C53.5927836,16.8403738 53.5618913,16.3308411 53.5002926,15.3114019 C53.0737545,15.3072897 52.8604854,15.3052336 52.4339473,15.3014953 C52.3600661,16.3233645 52.3230325,16.8345794 52.2491513,17.8573832 C51.0168061,17.8562617 50.4008195,17.8557009 49.1684742,17.8549533 C49.6813621,13.0915888 50.1968554,8.32841121 50.7151401,3.56542056 C52.4421357,3.63028037 53.3054473,3.67009346 55.0313262,3.76448598 C55.5853419,8.46411215 56.1412186,13.1633645 56.6995146,17.862243 C55.4814989,17.8607477 54.872398,17.86 53.6541962,17.8586916 L53.6541962,17.8586916 Z M48.7043442,8.78317757 C47.5103352,8.76056075 46.9133307,8.75140187 45.7191357,8.73794393 C45.7196939,8.21401869 45.71988,7.95196262 45.7204383,7.4282243 C45.7211827,6.60242991 45.6932679,6.08523364 45.6365078,5.8764486 C45.58012,5.66785047 45.4453845,5.56168224 45.2323016,5.55869159 C45.0480639,5.55626168 44.9224473,5.64373832 44.8561962,5.82130841 C44.789759,5.9988785 44.7564473,6.45663551 44.755889,7.19383178 L44.7508643,14.124486 C44.7503061,14.7727103 44.7830594,15.1994393 44.8489383,15.4046729 C44.9150034,15.6099065 45.0471334,15.7128972 45.2453285,15.7134579 C45.4625056,15.7140187 45.6100818,15.5985047 45.6882433,15.3671028 C45.7662186,15.1358879 45.8058576,14.6846729 45.8064159,14.0130841 C45.8069742,13.328972 45.8073464,12.9869159 45.8079047,12.3026168 C45.567093,12.3009346 45.4465011,12.3001869 45.2055034,12.2985047 C45.2062478,11.4213084 45.20662,10.9826168 45.2073643,10.1052336 C46.6053374,10.1173832 47.304324,10.1259813 48.7022971,10.1485981 C48.698389,12.7173832 48.694667,15.2859813 48.690759,17.8547664 C47.9417119,17.8542056 47.5670953,17.8540187 46.8180482,17.8536449 C46.70825,17.4407477 46.6533509,17.2342056 46.5435527,16.8209346 C46.3399608,17.2657944 46.0833307,17.5996262 45.7740348,17.8220561 C45.4645527,18.0446729 45.0996132,18.1560748 44.6794025,18.1560748 C44.1787971,18.1560748 43.7100146,18.0026168 43.2734271,17.6962617 C42.8368397,17.3897196 42.5050258,17.0097196 42.2785437,16.5571963 C42.0516895,16.104486 41.9100684,15.6293458 41.8534944,15.1319626 C41.7969204,14.6347664 41.7686334,13.888785 41.7688195,12.8938318 C41.7690056,11.1747664 41.7690056,10.3153271 41.7691917,8.59626168 C41.7693778,7.21457944 41.8285572,6.21102804 41.9469159,5.58598131 C42.0652747,4.96093458 42.4049047,4.3882243 42.9658061,3.87102804 C43.5268935,3.35383178 44.2523061,3.10037383 45.1420437,3.11439252 C46.0176379,3.1282243 46.7437948,3.37028037 47.3205146,3.83420561 C47.8972343,4.29813084 48.2725953,4.84224299 48.4465975,5.46448598 C48.6205998,6.0871028 48.7069496,6.98616822 48.7052747,8.16224299 C48.7049025,8.41065421 48.7047164,8.53476636 48.7043442,8.78317757 L48.7043442,8.78317757 Z M38.0451715,17.8528972 C37.5278173,15.6671028 37.0089742,13.4818692 36.4886424,11.2970093 C36.4906895,13.4824299 36.4929226,15.6678505 36.4949697,17.853271 C35.4984114,17.8536449 35.0000392,17.8540187 34.0032948,17.8545794 L33.9826379,3.49046729 C34.9819877,3.46186916 35.4816626,3.45009346 36.4811984,3.43140187 C37.0428442,5.59065421 37.6026289,7.75046729 38.1603666,9.91065421 C38.1590639,7.74224299 38.1577612,5.57383178 38.1564585,3.40560748 C39.1559944,3.39345794 39.6556693,3.38990654 40.6553913,3.38766355 C40.6559496,8.20915888 40.6565078,13.0308411 40.6570661,17.8523364 C39.6123083,17.8525234 39.0899294,17.8525234 38.0451715,17.8528972 L38.0451715,17.8528972 Z M32.8059361,14.9745794 C32.7525258,15.5740187 32.5835482,16.122243 32.2988173,16.6183178 C32.0140863,17.1143925 31.6290482,17.4947664 31.1435168,17.7596262 C30.6581715,18.0246729 30.0920594,18.1560748 29.4457388,18.1560748 C28.8321715,18.1560748 28.2811334,18.0319626 27.7920661,17.7856075 C27.3029989,17.5394393 26.9092141,17.1708411 26.6107119,16.6807477 C26.3122096,16.191028 26.1335549,15.6586916 26.0753061,15.0820561 C26.0170572,14.5054206 25.9859787,13.4962617 25.9820706,12.0534579 C25.9794652,11.0943925 25.9781626,10.6147664 25.9755572,9.65570093 C25.9716491,8.24766355 25.996028,7.24953271 26.04888,6.66093458 C26.101546,6.07252336 26.2701513,5.52803738 26.5548823,5.02691589 C26.8394271,4.52598131 27.2248374,4.13084112 27.7112993,3.84336449 C28.197389,3.55607477 28.7646177,3.39514019 29.4126132,3.36429907 C30.0272971,3.33495327 30.5800101,3.4353271 31.0698217,3.66542056 C31.5598195,3.89551402 31.9543487,4.25682243 32.2532231,4.74803738 C32.5520975,5.23925234 32.73038,5.78 32.7880706,6.36841121 C32.8457612,6.95682243 32.8759092,7.98878505 32.8783285,9.46411215 C32.8798173,10.4448598 32.8807478,10.9351402 32.8822365,11.9158879 C32.8846558,13.3557009 32.8591603,14.375514 32.8059361,14.9745794 L32.8059361,14.9745794 Z M23.0565998,17.8659813 C22.9451267,17.4699065 22.8894832,17.2721495 22.7780101,16.8771963 C22.576093,17.3050467 22.3209518,17.6250467 22.0124002,17.837757 C21.7038487,18.0504673 21.3394675,18.1560748 20.9190706,18.1560748 C20.4184652,18.1560748 19.9491244,18.011028 19.5116065,17.7250467 C19.0739025,17.4392523 18.740972,17.086729 18.512815,16.6678505 C18.2848442,16.248785 18.1417343,15.8099065 18.0834854,15.3493458 C18.0254226,14.888972 17.9947164,14.1979439 17.9917388,13.2749533 C17.9863419,11.6805607 17.9837365,10.8833645 17.9785258,9.28878505 C17.9742455,8.00728972 18.0300751,7.07233645 18.1460146,6.48242991 C18.2621401,5.89252336 18.5987926,5.3317757 19.1565303,4.79719626 C19.7140818,4.26261682 20.4365168,3.95364486 21.3242074,3.88224299 C22.1979406,3.81196262 22.9235392,3.97308411 23.5011895,4.36728972 C24.0788397,4.76149533 24.4560617,5.25663551 24.6324832,5.84598131 C24.8090908,6.43551402 24.8989765,7.30317757 24.9021401,8.44598131 C24.9028845,8.68728972 24.9032567,8.80785047 24.9040011,9.04915888 C23.7109226,9.09850467 23.1144765,9.12542056 21.9219563,9.18392523 C21.9204675,8.68485981 21.9197231,8.4353271 21.9180482,7.93607477 C21.9156289,7.14953271 21.885667,6.6588785 21.8283487,6.46448598 C21.7712164,6.27028037 21.6362948,6.18018692 21.4237702,6.19439252 C21.2397186,6.20672897 21.1146603,6.29981308 21.0493397,6.47308411 C20.9836469,6.64654206 20.9520101,7.08224299 20.9542433,7.78 C20.961315,9.96672897 20.9683868,12.1534579 20.9752724,14.34 C20.9773195,14.9536449 21.0117478,15.3570093 21.0783711,15.5499065 C21.1449944,15.7431776 21.2774966,15.8388785 21.4756917,15.8362617 C21.6926827,15.8334579 21.8398868,15.7214953 21.9171177,15.4996262 C21.9943487,15.2779439 22.0317545,14.8469159 22.0298935,14.2069159 C22.0278464,13.5547664 22.0267298,13.2285981 22.0246827,12.5764486 C21.7840572,12.5837383 21.6636513,12.5874766 21.4228397,12.5949533 C21.4202343,11.7620561 21.4189316,11.3456075 21.4163262,10.5125234 C22.8126244,10.4527103 23.5108666,10.4252336 24.9077231,10.3758879 C24.9149809,12.8717757 24.9220527,15.3674766 24.9291244,17.8631776 C24.1802635,17.8642991 23.8056469,17.8648598 23.0565998,17.8659813 L23.0565998,17.8659813 Z M14.1707612,17.882243 C14.1651783,16.148785 14.1623868,15.2820561 14.1569899,13.5484112 C14.1547567,12.8504673 14.1048823,12.4201869 14.0077388,12.2585047 C13.9105953,12.0970093 13.6569428,12.0265421 13.2465953,12.0476636 C13.2527365,13.993271 13.2586917,15.9388785 13.264833,17.8842991 C12.0730572,17.8871028 11.4769832,17.8884112 10.2852074,17.8915888 C10.2738554,13.6904673 10.2625034,9.48953271 10.2511513,5.28841121 C11.0925034,5.1846729 11.5134585,5.13457944 12.3555549,5.03794393 C13.7589249,4.87682243 14.7100751,4.84 15.207889,4.91383178 C15.7055168,4.98785047 16.1121424,5.26785047 16.4273935,5.75626168 C16.7426446,6.24448598 16.9023173,7.05925234 16.9060392,8.19439252 C16.9095751,9.23084112 16.8008935,9.93439252 16.5805527,10.3024299 C16.3598397,10.6706542 15.9243688,10.9065421 15.2737679,11.0125234 C15.8637007,11.1482243 16.2610213,11.3549533 16.4646132,11.6293458 C16.6683913,11.9039252 16.7953105,12.1603738 16.8457433,12.3968224 C16.8959899,12.6330841 16.9229742,13.2891589 16.9265101,14.3639252 C16.9311626,15.768972 16.9335818,16.4714019 16.9382343,17.8764486 C15.8313195,17.8786916 15.277676,17.8798131 14.1707612,17.882243 L14.1707612,17.882243 Z M6.73407287,17.9009346 C6.66856614,17.0276636 6.63581278,16.5915888 6.57030605,15.7213084 C6.14432623,15.7328972 5.93142937,15.7388785 5.50544955,15.7506542 C5.43491816,16.6142056 5.39974552,17.0450467 5.32921413,17.9050467 C4.09705493,17.9085981 3.48106839,17.9106542 2.24890919,17.9145794 C2.76291368,14.0024299 3.26612444,10.088972 3.76021637,6.17420561 C5.47381278,5.91775701 6.33135538,5.79682243 8.04792937,5.56990654 C8.63172085,9.67663551 9.20862668,13.7842991 9.77901906,17.8927103 C8.56118946,17.8958879 7.95208857,17.8975701 6.73407287,17.9009346 L6.73407287,17.9009346 Z M81.0451267,4.1717757 C80.9600796,3.5128972 80.4337926,3.00018692 79.7753756,2.93495327 C74.2808128,2.39121495 50.1694989,0.054953271 41.4349585,0.0564485981 C32.7437791,0.0579439252 8.74412444,2.39439252 3.29738901,2.93607477 C2.64604372,3.00074766 2.1231065,3.50411215 2.03080157,4.15476636 L0.0144226457,18.3715888 C-0.107471973,19.231215 0.556714126,20 1.42114238,20 L81.4698038,20 C82.3269742,20 82.9889271,19.2433645 82.8787567,18.3895327 L81.0451267,4.1717757 Z" id="Fill-9" fill="#FEFEFE" sketch:type="MSShapeGroup" mask="url(#mask-2)"></path>
                </g>
            </g>
        </g>
    </g>
</svg>