<?xml version="1.0" encoding="UTF-8" standalone="no"?>
<svg width="32px" height="24px" viewBox="0 0 32 24" version="1.1" xmlns="http://www.w3.org/2000/svg" xmlns:xlink="http://www.w3.org/1999/xlink" xmlns:sketch="http://www.bohemiancoding.com/sketch/ns">
    <!-- Generator: Sketch 3.4.4 (17249) - http://www.bohemiancoding.com/sketch -->
    <title>Group</title>
    <desc>Created with Sketch.</desc>
    <defs></defs>
    <g id="Page-1" stroke="none" stroke-width="1" fill="none" fill-rule="evenodd" sketch:type="MSPage">
        <g id="Group" sketch:type="MSLayerGroup" fill="#FFFFFF">
            <path d="M31.67,5.179 C31.67,5.179 31.358,2.826 30.399,1.79 C29.182,0.432 27.819,0.424 27.194,0.347 C22.717,0 16.002,0 16.002,0 L15.987,0 C15.987,0 9.272,0 4.796,0.347 C4.171,0.424 2.809,0.432 1.591,1.79 C0.633,2.826 0.32,5.179 0.32,5.179 C0.32,5.179 0,7.94 0,10.701 L0,13.289 C0,16.052 0.32,18.812 0.32,18.812 C0.32,18.812 0.632,21.164 1.591,22.198 C2.809,23.556 4.406,23.515 5.118,23.657 C7.677,23.919 15.995,24 15.995,24 C15.995,24 22.717,23.988 27.194,23.645 C27.819,23.565 29.182,23.557 30.399,22.199 C31.357,21.165 31.67,18.813 31.67,18.813 C31.67,18.813 31.99,16.052 31.99,13.29 L31.99,10.702 C31.99,7.94 31.67,5.179 31.67,5.179 L31.67,5.179 Z" id="Shape" fill-opacity="0.3" sketch:type="MSShapeGroup"></path>
            <path d="M12,6 L12,18 L22,12 L12,6 Z" id="Shape" sketch:type="MSShapeGroup"></path>
        </g>
    </g>
</svg>