<?xml version="1.0" encoding="UTF-8" standalone="no"?>
<svg width="140px" height="90px" viewBox="0 0 140 90" version="1.1" xmlns="http://www.w3.org/2000/svg" xmlns:xlink="http://www.w3.org/1999/xlink" xmlns:sketch="http://www.bohemiancoding.com/sketch/ns">
    <!-- Generator: Sketch 3.4.4 (17249) - http://www.bohemiancoding.com/sketch -->
    <title>Group</title>
    <desc>Created with Sketch.</desc>
    <defs></defs>
    <g id="Page-1" stroke="none" stroke-width="1" fill="none" fill-rule="evenodd" sketch:type="MSPage">
        <g id="Group" sketch:type="MSLayerGroup">
            <g id="fb" sketch:type="MSShapeGroup">
                <rect id="Rectangle-7-Copy-2" fill="#3A5BA2" x="0" y="0" width="40" height="40" rx="2"></rect>
                <path d="M18.203717,11.5923216 C18.203717,8.49890527 20.702858,6 23.7956708,6 L28,6 L28,11.5923216 L25.1839075,11.5923216 C24.4310604,11.5923216 23.7956708,12.2269739 23.7956708,12.9804759 L23.7956708,15.7957891 L28,15.7957891 L28,21.387411 L23.7956708,21.387411 L23.7956708,34 L18.203717,34 L18.203717,21.387411 L14,21.387411 L14,15.7957891 L18.203717,15.7957891 L18.203717,11.5923216 L18.203717,11.5923216 Z" id="Shape" fill="#FFFFFF"></path>
            </g>
            <g id="twitter" transform="translate(50.000000, 0.000000)" sketch:type="MSShapeGroup">
                <rect id="Rectangle-7-Copy" fill="#1EBEF0" x="0" y="0" width="40" height="40" rx="2"></rect>
                <path d="M21.9815399,13.2398825 L21.7973451,13.7298273 C21.6868283,14.0685023 21.6124998,14.4079248 21.5756609,14.7466829 C21.538822,14.9348356 21.538822,15.0860224 21.501983,15.2366277 L21.501983,15.5377552 L21.538822,16.0277 L21.6124998,16.668167 L21.3545459,16.668167 L21.2071088,16.668167 C19.3998048,16.6305364 17.6299904,16.2158527 16.080559,15.5001246 L15.1588535,15.0484749 C14.9746588,14.9725493 14.8272217,14.8596576 14.6423764,14.7467659 C13.6100727,14.1439295 12.6883672,13.3528572 11.8764466,12.4866069 C11.3606201,11.921401 10.8809819,11.3185646 10.4751029,10.6780976 C10.0328729,11.5450955 9.77443106,12.561868 9.77443106,13.6170187 C9.77443106,13.9934073 9.81127,14.3703774 9.88494789,14.7467659 C9.88494789,14.9349187 9.92178684,15.0861055 9.95927636,15.2367107 C10.2909082,16.366458 10.8809819,17.3839781 11.6922519,18.1373368 L12.0982122,18.5143899 L11.581735,18.4008337 C10.9179021,18.2125979 10.2540692,17.9868146 9.62707528,17.7226531 C9.70075317,19.0789313 10.2172303,20.3221517 11.028419,21.3020412 C11.8027687,22.2429712 12.835723,22.9593638 14.0153824,23.2980388 L12.6508777,23.3732999 L11.5079758,23.3356694 C12.3560848,25.4458877 14.3107445,26.9903186 16.6339564,27.1785544 C14.4950206,28.7982465 11.8396077,29.702875 9,29.702875 C11.1020969,31.0214395 13.4995559,31.8494778 16.1173979,32 L17.8141851,32 C25.8902901,31.5482672 32.2708279,24.7295781 32.2708279,16.3663749 L32.2708279,15.5753857 C32.5656207,15.3119718 32.8604136,15.0484749 33.1564263,14.7467659 C33.8564476,14.1062989 34.4840921,13.3528572 35,12.561868 C34.1512405,13.1270739 33.1564263,13.4282014 32.0498755,13.4282014 C33.0077694,12.7501038 33.782851,11.7332482 34.1881607,10.5652059 C33.4143803,10.9798896 32.5288631,11.280934 31.6432646,11.5450955 L31.5327478,11.582726 L30.8695655,11.7332482 C29.9103705,10.6780976 28.5457844,10 27.0338425,10 L26.923407,10 C26.5180973,10 26.1115678,10.0376306 25.7061767,10.1135562 C25.1166723,10.2640784 24.5258667,10.5275753 24.0468791,10.8292843 L23.678327,11.1302457 C22.9401656,11.657821 22.3875002,12.4111797 21.9815399,13.2398825 Z" id="Shape" fill="#FFFFFF"></path>
            </g>
            <g id="vk" transform="translate(100.000000, 0.000000)" sketch:type="MSShapeGroup">
                <rect id="Rectangle-7" fill="#4C75A3" x="0" y="0" width="40" height="40" rx="2"></rect>
                <path d="M19.6996686,27.9330789 L21.3731736,27.9330789 C21.3731736,27.9330789 21.8785224,27.8771541 22.1368783,27.5987005 C22.3746718,27.3427677 22.367067,26.8623806 22.367067,26.8623806 C22.367067,26.8623806 22.3340445,24.6130673 23.3765045,24.2819534 C24.4040791,23.9556123 25.7233576,26.4557513 27.1217116,27.4170274 C28.1792097,28.1444729 28.9828669,27.9852364 28.9828669,27.9852364 L32.7221358,27.9330789 C32.7221358,27.9330789 34.6777387,27.8121033 33.7504678,26.2715667 C33.6745731,26.145819 33.210014,25.1322172 30.9703128,23.0498431 C28.6251264,20.869683 28.9394823,21.2225639 31.7639411,17.4520537 C33.4838316,15.1557728 34.1717228,13.7542958 33.9565814,13.1536868 C33.7518013,12.5817099 32.4867658,12.7325733 32.4867658,12.7325733 L28.2764145,12.7589461 C28.2764145,12.7589461 27.9644827,12.7162478 27.7328702,12.8548888 C27.5067801,12.9906831 27.361514,13.3073969 27.361514,13.3073969 C27.361514,13.3073969 26.6945997,15.0842763 25.8061907,16.5954271 C23.9317444,19.7838309 23.1820054,19.9526106 22.8755881,19.7541935 C22.162702,19.2927276 22.3409829,17.9007939 22.3409829,16.9114713 C22.3409829,13.8213555 22.8088845,12.5328169 21.4295068,12.1994425 C20.9718042,12.0887653 20.634797,12.0153421 19.4642901,12.0035376 C17.9622172,11.9882169 16.6906584,12.0083124 15.9709235,12.3613574 C15.491985,12.596863 15.1222962,13.1198636 15.3477269,13.1501706 C15.6259698,13.1873425 16.2560229,13.3202061 16.5900208,13.7757277 C17.0214846,14.3637798 17.0063555,15.6839646 17.0063555,15.6839646 C17.0063555,15.6839646 17.2544306,19.3215271 16.4274549,19.7731146 C15.8598433,20.083131 15.0814246,19.4504565 13.409839,16.5575856 C12.5536965,15.075988 11.9070912,13.4376662 11.9070912,13.4376662 C11.9070912,13.4376662 11.7827201,13.1319198 11.5601363,12.967912 C11.2903283,12.7692432 10.9132055,12.7064528 10.9132055,12.7064528 L6.91239154,12.7324064 C6.91239154,12.7324064 6.31176578,12.7494849 6.09160533,13.011111 C5.89509788,13.2439376 6.07589173,13.7249942 6.07589173,13.7249942 C6.07589173,13.7249942 9.20784913,21.0650018 12.7543766,24.7637638 C16.0071099,28.1559422 19.6996686,27.9330789 19.6996686,27.9330789 L19.6996686,27.9330789 L19.6996686,27.9330789 Z" id="path9" fill="#FFFFFF"></path>
            </g>
            <g id="fb-copy" transform="translate(0.000000, 50.000000)" sketch:type="MSShapeGroup">
                <rect id="Rectangle-7-Copy-2" fill="#4F7CDD" x="0" y="0" width="40" height="40" rx="2"></rect>
                <path d="M18.203717,11.5923216 C18.203717,8.49890527 20.702858,6 23.7956708,6 L28,6 L28,11.5923216 L25.1839075,11.5923216 C24.4310604,11.5923216 23.7956708,12.2269739 23.7956708,12.9804759 L23.7956708,15.7957891 L28,15.7957891 L28,21.387411 L23.7956708,21.387411 L23.7956708,34 L18.203717,34 L18.203717,21.387411 L14,21.387411 L14,15.7957891 L18.203717,15.7957891 L18.203717,11.5923216 L18.203717,11.5923216 Z" id="Shape" fill="#FFFFFF"></path>
            </g>
            <g id="twitter-copy" transform="translate(50.000000, 50.000000)" sketch:type="MSShapeGroup">
                <rect id="Rectangle-7-Copy" fill="#61CDEF" x="0" y="0" width="40" height="40" rx="2"></rect>
                <path d="M21.9815399,13.2398825 L21.7973451,13.7298273 C21.6868283,14.0685023 21.6124998,14.4079248 21.5756609,14.7466829 C21.538822,14.9348356 21.538822,15.0860224 21.501983,15.2366277 L21.501983,15.5377552 L21.538822,16.0277 L21.6124998,16.668167 L21.3545459,16.668167 L21.2071088,16.668167 C19.3998048,16.6305364 17.6299904,16.2158527 16.080559,15.5001246 L15.1588535,15.0484749 C14.9746588,14.9725493 14.8272217,14.8596576 14.6423764,14.7467659 C13.6100727,14.1439295 12.6883672,13.3528572 11.8764466,12.4866069 C11.3606201,11.921401 10.8809819,11.3185646 10.4751029,10.6780976 C10.0328729,11.5450955 9.77443106,12.561868 9.77443106,13.6170187 C9.77443106,13.9934073 9.81127,14.3703774 9.88494789,14.7467659 C9.88494789,14.9349187 9.92178684,15.0861055 9.95927636,15.2367107 C10.2909082,16.366458 10.8809819,17.3839781 11.6922519,18.1373368 L12.0982122,18.5143899 L11.581735,18.4008337 C10.9179021,18.2125979 10.2540692,17.9868146 9.62707528,17.7226531 C9.70075317,19.0789313 10.2172303,20.3221517 11.028419,21.3020412 C11.8027687,22.2429712 12.835723,22.9593638 14.0153824,23.2980388 L12.6508777,23.3732999 L11.5079758,23.3356694 C12.3560848,25.4458877 14.3107445,26.9903186 16.6339564,27.1785544 C14.4950206,28.7982465 11.8396077,29.702875 9,29.702875 C11.1020969,31.0214395 13.4995559,31.8494778 16.1173979,32 L17.8141851,32 C25.8902901,31.5482672 32.2708279,24.7295781 32.2708279,16.3663749 L32.2708279,15.5753857 C32.5656207,15.3119718 32.8604136,15.0484749 33.1564263,14.7467659 C33.8564476,14.1062989 34.4840921,13.3528572 35,12.561868 C34.1512405,13.1270739 33.1564263,13.4282014 32.0498755,13.4282014 C33.0077694,12.7501038 33.782851,11.7332482 34.1881607,10.5652059 C33.4143803,10.9798896 32.5288631,11.280934 31.6432646,11.5450955 L31.5327478,11.582726 L30.8695655,11.7332482 C29.9103705,10.6780976 28.5457844,10 27.0338425,10 L26.923407,10 C26.5180973,10 26.1115678,10.0376306 25.7061767,10.1135562 C25.1166723,10.2640784 24.5258667,10.5275753 24.0468791,10.8292843 L23.678327,11.1302457 C22.9401656,11.657821 22.3875002,12.4111797 21.9815399,13.2398825 Z" id="Shape" fill="#FFFFFF"></path>
            </g>
            <g id="vk-copy" transform="translate(100.000000, 50.000000)" sketch:type="MSShapeGroup">
                <rect id="Rectangle-7" fill="#5D91CB" x="0" y="0" width="40" height="40" rx="2"></rect>
                <path d="M19.6996686,27.9330789 L21.3731736,27.9330789 C21.3731736,27.9330789 21.8785224,27.8771541 22.1368783,27.5987005 C22.3746718,27.3427677 22.367067,26.8623806 22.367067,26.8623806 C22.367067,26.8623806 22.3340445,24.6130673 23.3765045,24.2819534 C24.4040791,23.9556123 25.7233576,26.4557513 27.1217116,27.4170274 C28.1792097,28.1444729 28.9828669,27.9852364 28.9828669,27.9852364 L32.7221358,27.9330789 C32.7221358,27.9330789 34.6777387,27.8121033 33.7504678,26.2715667 C33.6745731,26.145819 33.210014,25.1322172 30.9703128,23.0498431 C28.6251264,20.869683 28.9394823,21.2225639 31.7639411,17.4520537 C33.4838316,15.1557728 34.1717228,13.7542958 33.9565814,13.1536868 C33.7518013,12.5817099 32.4867658,12.7325733 32.4867658,12.7325733 L28.2764145,12.7589461 C28.2764145,12.7589461 27.9644827,12.7162478 27.7328702,12.8548888 C27.5067801,12.9906831 27.361514,13.3073969 27.361514,13.3073969 C27.361514,13.3073969 26.6945997,15.0842763 25.8061907,16.5954271 C23.9317444,19.7838309 23.1820054,19.9526106 22.8755881,19.7541935 C22.162702,19.2927276 22.3409829,17.9007939 22.3409829,16.9114713 C22.3409829,13.8213555 22.8088845,12.5328169 21.4295068,12.1994425 C20.9718042,12.0887653 20.634797,12.0153421 19.4642901,12.0035376 C17.9622172,11.9882169 16.6906584,12.0083124 15.9709235,12.3613574 C15.491985,12.596863 15.1222962,13.1198636 15.3477269,13.1501706 C15.6259698,13.1873425 16.2560229,13.3202061 16.5900208,13.7757277 C17.0214846,14.3637798 17.0063555,15.6839646 17.0063555,15.6839646 C17.0063555,15.6839646 17.2544306,19.3215271 16.4274549,19.7731146 C15.8598433,20.083131 15.0814246,19.4504565 13.409839,16.5575856 C12.5536965,15.075988 11.9070912,13.4376662 11.9070912,13.4376662 C11.9070912,13.4376662 11.7827201,13.1319198 11.5601363,12.967912 C11.2903283,12.7692432 10.9132055,12.7064528 10.9132055,12.7064528 L6.91239154,12.7324064 C6.91239154,12.7324064 6.31176578,12.7494849 6.09160533,13.011111 C5.89509788,13.2439376 6.07589173,13.7249942 6.07589173,13.7249942 C6.07589173,13.7249942 9.20784913,21.0650018 12.7543766,24.7637638 C16.0071099,28.1559422 19.6996686,27.9330789 19.6996686,27.9330789 L19.6996686,27.9330789 L19.6996686,27.9330789 Z" id="path9" fill="#FFFFFF"></path>
            </g>
        </g>
    </g>
</svg>